<?xml version="1.0" standalone="no"?>
<!DOCTYPE svg PUBLIC "-//W3C//DTD SVG 20010904//EN"
 "http://www.w3.org/TR/2001/REC-SVG-20010904/DTD/svg10.dtd">
<svg version="1.0" xmlns="http://www.w3.org/2000/svg"
 width="93.000000pt" height="93.000000pt" viewBox="0 0 93.000000 93.000000"
 preserveAspectRatio="xMidYMid meet">
<metadata>
Created by potrace 1.14, written by Peter Selinger 2001-2017
</metadata>
<g transform="translate(0.000000,93.000000) scale(0.100000,-0.100000)"
fill="#000000" stroke="none">
<path d="M438 905 c-10 -10 16 -95 28 -95 13 0 35 78 26 94 -3 5 -11 -4 -18
-20 -11 -26 -12 -26 -13 -7 -1 22 -14 37 -23 28z"/>
<path d="M530 889 c-6 -10 -9 -19 -6 -19 3 0 1 -14 -4 -31 -10 -33 5 -47 37
-35 15 6 14 8 -2 20 -17 12 -17 13 6 21 20 6 21 8 7 12 -22 6 -24 23 -3 23 22
0 18 17 -5 23 -13 3 -24 -1 -30 -14z"/>
<path d="M357 893 c-7 -14 14 -93 25 -93 6 0 8 10 5 23 l-6 22 17 -23 c20 -26
36 -19 21 9 -5 11 -9 25 -8 32 3 28 -2 37 -25 37 -14 0 -27 -3 -29 -7z"/>
<path d="M300 869 c0 -6 5 -19 11 -30 6 -11 8 -25 6 -32 -2 -7 -13 6 -24 27
-11 22 -23 34 -27 28 -10 -16 28 -77 51 -80 28 -4 33 17 14 61 -15 35 -31 49
-31 26z"/>
<path d="M597 838 c-13 -33 -14 -44 -4 -50 22 -14 36 -8 52 22 19 37 19 56 -1
64 -27 10 -30 7 -47 -36z m36 -8 c-3 -11 -9 -20 -14 -20 -11 0 -11 3 -3 24 9
23 23 20 17 -4z"/>
<path d="M218 845 c-4 -4 -4 -13 -2 -20 4 -10 -1 -12 -18 -8 -19 5 -17 0 17
-33 45 -44 62 -46 41 -6 -8 15 -18 37 -23 50 -4 13 -11 20 -15 17z"/>
<path d="M672 807 c-32 -32 -34 -51 -6 -40 8 3 14 -1 14 -11 0 -32 17 -15 32
34 20 61 7 66 -40 17z"/>
<path d="M132 773 c22 -51 89 -114 72 -68 -4 9 0 15 10 15 27 0 18 14 -24 38
-39 22 -65 29 -58 15z"/>
<path d="M758 740 c-33 -33 -33 -53 0 -58 15 -2 22 2 22 13 0 9 -4 13 -10 10
-16 -10 -11 11 6 26 13 10 17 10 24 -2 7 -11 12 -11 21 -2 9 9 9 16 -1 28 -18
21 -27 19 -62 -15z"/>
<path d="M70 691 c0 -6 15 -18 33 -27 18 -10 26 -19 19 -22 -7 -2 -18 0 -25 6
-22 17 -47 22 -47 9 0 -15 69 -44 93 -39 11 2 17 11 15 20 -4 19 -88 69 -88
53z"/>
<path d="M802 674 c-12 -8 -22 -24 -22 -35 0 -25 49 -26 81 -1 46 38 -8 72
-59 36z m46 -16 c-3 -7 -15 -15 -28 -16 -21 -3 -22 -2 -11 12 16 19 44 21 39
4z"/>
<path d="M456 625 c-30 -45 7 -80 48 -46 9 7 16 9 16 3 0 -14 -28 -35 -39 -28
-5 4 -11 -2 -13 -11 -2 -13 -8 -8 -21 18 -9 20 -23 39 -31 42 -18 7 -62 -26
-69 -52 -4 -17 37 -121 48 -121 10 0 35 61 35 85 0 14 5 25 10 25 6 0 10 -7
10 -15 0 -8 5 -15 11 -15 8 0 8 -4 0 -14 -7 -8 -9 -25 -6 -38 3 -12 7 -38 9
-56 7 -63 24 -58 29 9 1 24 6 50 10 57 5 6 5 17 1 24 -5 8 -10 6 -15 -8 -6
-15 -8 -15 -8 -3 -1 9 6 22 14 29 8 7 15 19 15 28 0 25 8 9 15 -27 3 -19 12
-45 19 -59 l13 -25 27 45 c14 25 26 53 26 64 0 36 -28 63 -68 66 -27 2 -40 9
-47 26 -12 28 -19 28 -39 -3z"/>
<path d="M853 607 c-36 -8 -43 -14 -43 -33 0 -29 26 -32 33 -5 3 11 17 22 36
26 17 4 31 11 31 16 0 10 0 10 -57 -4z"/>
<path d="M44 595 c19 -15 19 -15 -2 -15 -23 0 -31 -18 -9 -24 6 -2 27 -8 44
-14 36 -11 54 1 26 17 -16 9 -16 10 5 11 35 0 26 18 -15 29 -55 16 -73 14 -49
-4z"/>
<path d="M885 544 c-5 -1 -22 -5 -37 -8 -30 -7 -41 -46 -13 -46 8 0 15 7 15
15 0 9 10 16 25 16 40 2 45 4 48 13 2 9 -20 15 -38 10z"/>
<path d="M10 511 c0 -5 10 -12 23 -16 l22 -8 -22 -4 c-42 -8 -24 -23 27 -23
28 0 50 5 50 10 0 6 -9 10 -20 10 -11 0 -20 5 -20 10 0 6 12 10 26 10 14 0 23
4 19 10 -8 12 -105 13 -105 1z"/>
<path d="M829 475 c0 0 -2 -10 -5 -22 -4 -26 13 -41 22 -19 3 9 10 16 16 16 5
0 7 -4 3 -9 -3 -5 -1 -12 4 -16 5 -3 14 3 20 12 10 17 10 17 11 0 0 -25 24
-16 28 10 3 19 -3 21 -47 24 -28 2 -51 4 -52 4z"/>
<path d="M64 433 c-6 -5 -14 -15 -17 -23 -4 -12 -6 -11 -6 3 -1 20 -17 23 -24
5 -13 -38 34 -53 55 -18 7 11 17 20 22 20 4 0 2 -7 -5 -16 -12 -14 -11 -16 6
-13 27 6 27 43 0 47 -11 1 -25 -1 -31 -5z"/>
<path d="M811 386 c-9 -11 -8 -18 4 -30 21 -21 41 -20 49 0 5 13 2 15 -14 11
-11 -3 -20 -1 -20 4 0 10 43 12 53 2 4 -3 2 -12 -4 -19 -16 -20 7 -26 26 -7
16 16 16 18 -5 35 -26 21 -73 24 -89 4z"/>
<path d="M78 363 c-27 -8 -48 -18 -48 -24 0 -13 19 -10 69 10 56 23 41 32 -21
14z"/>
<path d="M782 319 c-16 -24 -15 -29 3 -29 8 0 15 5 15 10 0 6 5 10 11 10 6 0
9 -7 6 -15 -7 -17 9 -30 18 -15 3 5 11 10 17 10 7 0 7 -5 -1 -14 -9 -10 -8
-15 3 -19 13 -5 26 11 26 33 0 5 -17 17 -37 26 -21 10 -40 19 -43 20 -4 2 -11
-6 -18 -17z"/>
<path d="M93 317 c-50 -12 -59 -32 -10 -24 32 6 32 6 10 -10 -22 -15 -31 -33
-15 -33 14 1 82 66 76 73 -4 4 -10 6 -13 6 -3 -1 -25 -6 -48 -12z"/>
<path d="M148 234 c-11 -11 4 -42 23 -47 15 -4 19 0 19 18 0 13 -7 26 -16 29
-19 7 -19 7 -26 0z"/>
<path d="M763 233 c-7 -2 -13 -16 -13 -30 0 -24 1 -25 23 -10 34 22 26 55 -10
40z"/>
<path d="M243 155 c-5 -13 -7 -14 -14 -3 -7 10 -9 9 -9 -4 0 -10 7 -18 16 -18
9 0 12 -5 8 -12 -4 -7 1 -5 12 4 24 21 38 12 42 -25 2 -21 0 -27 -9 -21 -8 4
-9 3 -5 -4 11 -18 35 -14 34 6 0 9 2 24 6 32 4 10 -6 22 -34 38 -36 20 -41 21
-47 7z"/>
<path d="M645 144 c-22 -13 -55 -27 -72 -30 -18 -3 -31 -9 -29 -13 2 -3 -16
-4 -41 -2 -44 3 -45 3 -32 -20 11 -22 11 -23 -5 -10 -14 12 -16 12 -11 -1 4
-9 17 -15 31 -14 13 0 22 6 20 12 -3 7 3 10 14 7 12 -3 16 -11 12 -25 -3 -15
-1 -19 9 -16 8 3 13 14 11 26 -2 11 3 24 9 28 8 5 10 2 7 -8 -4 -8 -1 -15 7
-15 7 0 10 8 8 18 -6 23 14 34 34 17 15 -11 16 -11 10 7 l-7 20 16 -20 c16
-20 16 -19 11 5 -5 22 -5 23 7 8 7 -10 17 -18 21 -18 4 0 2 7 -5 15 -7 9 -11
17 -8 20 8 8 48 -7 42 -16 -3 -5 -1 -9 5 -9 19 0 18 15 -3 37 l-21 22 -40 -25z"/>
<path d="M352 135 c4 -4 0 -14 -9 -20 -14 -10 -15 -17 -6 -36 l11 -24 10 25 9
25 7 -23 c4 -12 12 -22 18 -22 5 0 7 7 4 16 -4 12 -2 15 9 10 8 -3 15 -1 15 4
0 10 -3 11 -32 14 -7 0 -13 7 -13 15 0 8 -7 16 -15 19 -8 3 -12 1 -8 -3z"/>
<path d="M266 113 c-6 -14 -5 -15 5 -6 7 7 10 15 7 18 -3 3 -9 -2 -12 -12z"/>
<path d="M590 91 c0 -6 4 -13 10 -16 6 -3 7 1 4 9 -7 18 -14 21 -14 7z"/>
</g>
</svg>
